<?xml version="1.0" encoding="utf-8"?>
<!-- Generator: Adobe Illustrator 25.0.0, SVG Export Plug-In . SVG Version: 6.00 Build 0)  -->
<svg version="1.1" id="Capa_1" xmlns="http://www.w3.org/2000/svg" xmlns:xlink="http://www.w3.org/1999/xlink" x="0px" y="0px"
	 width="90px" height="90px" viewBox="0 0 90 90" style="enable-background:new 0 0 90 90;" xml:space="preserve">
<style type="text/css">
	.st0{fill:#FFFFFF;}
</style>
<path class="st0" d="M45,2.5C21.5,2.5,2.5,21.5,2.5,45c0,23.5,19,42.5,42.5,42.5c23.5,0,42.5-19,42.5-42.5
	C87.5,21.5,68.5,2.5,45,2.5z M30.3,39.5h-6.7v4.3h5.8v3h-5.8v6.6h-4v-17h11.3L30.3,39.5z M36.7,53.5h-3.9v-17h3.9V53.5z M51.2,53
	c-1,0.4-2.2,0.7-3.6,0.7c-1.3,0-2.4-0.2-3.5-0.7c-1-0.4-1.9-1-2.6-1.8c-0.7-0.8-1.3-1.7-1.6-2.8c-0.4-1.1-0.6-2.2-0.6-3.5
	c0-0.9,0.1-1.8,0.3-2.6c0.2-0.8,0.5-1.5,0.9-2.2c0.4-0.6,0.9-1.2,1.4-1.7c0.5-0.5,1.1-0.9,1.7-1.2c0.6-0.3,1.3-0.6,2-0.7
	c0.7-0.2,1.4-0.2,2.1-0.2c1,0,2,0.2,3,0.5c1,0.3,1.9,0.9,2.7,1.6l-1.9,2.4c-0.6-0.4-1.2-0.7-1.9-0.9c-0.6-0.2-1.3-0.3-1.9-0.3
	c-0.6,0-1.2,0.1-1.7,0.3c-0.5,0.2-1,0.5-1.4,1c-0.4,0.4-0.7,1-1,1.7s-0.4,1.5-0.4,2.4c0,0.9,0.1,1.7,0.4,2.4c0.3,0.7,0.6,1.3,1,1.7
	c0.4,0.5,0.9,0.8,1.5,1c0.6,0.2,1.1,0.3,1.8,0.3c0.6,0,1.3-0.1,1.9-0.3c0.6-0.2,1.2-0.6,1.8-1.1l2.1,2C53.1,51.9,52.3,52.6,51.2,53z
	 M70.4,53.5h-4v-7.2h-6.9v7.2h-4v-17h4v7.1h6.9v-7.1h4V53.5z"/>
</svg>
